Coordinates
version=1
nRows=13
nColumns=40
inDegrees=yes

Units are S.I. units (second, meters, Newtons, ...)
Angles are in degrees.

endheader
time	pelvis_tilt	pelvis_list	pelvis_rotation	pelvis_tx	pelvis_ty	pelvis_tz	hip_flexion_r	hip_adduction_r	hip_rotation_r	knee_angle_r	knee_angle_r_beta	ankle_angle_r	subtalar_angle_r	mtp_angle_r	hip_flexion_l	hip_adduction_l	hip_rotation_l	knee_angle_l	knee_angle_l_beta	ankle_angle_l	subtalar_angle_l	mtp_angle_l	lumbar_extension	lumbar_bending	lumbar_rotation	arm_flex_r	arm_add_r	arm_rot_r	elbow_flex_r	pro_sup_r	wrist_flex_r	wrist_dev_r	arm_flex_l	arm_add_l	arm_rot_l	elbow_flex_l	pro_sup_l	wrist_flex_l	wrist_dev_l
     32.54314286	     -4.95761755	     -3.26882406	     17.46764588	      0.98331818	      0.91491144	      0.50529842	      5.16566656	      2.98693230	    -18.79805445	     20.00646137	     20.00646137	     20.26365016	    -12.28347113	      0.55558731	     29.46865274	     -3.74947506	      3.86340799	     15.97307218	     15.97307218	      0.96395455	     -2.62080411	     -1.36602332	     -9.38721004	      1.75494209	      5.33152425	     70.26481293	    -19.26527712	     -0.57649625	     73.16669682	     44.82853222	      0.00000000	      0.00000000	    -24.13846819	     -7.73997803	     26.60566566	     31.58586814	     42.89332567	      0.00000000	      0.00000000
     32.56628571	     -4.82644911	     -3.47592753	     17.39713744	      0.98562085	      0.91441738	      0.50124354	      4.20878551	      3.21212596	    -18.82284241	     19.35502947	     19.35502947	     20.39831379	    -11.82280835	      0.59425690	     29.50279715	     -3.79797112	      4.24342808	     17.20967578	     17.20967578	      0.69157371	     -3.80157498	     -1.81356736	     -9.25217786	      1.85129029	      5.20754216	     70.18355158	    -18.85998273	     -0.38622866	     73.75924646	     44.80841702	      0.00000000	      0.00000000	    -23.66173950	     -8.06025265	     26.63431455	     31.53129170	     42.91820638	      0.00000000	      0.00000000
     32.58942857	     -4.79677709	     -3.48779277	     17.22484465	      0.98809470	      0.91430351	      0.49689813	      3.26399334	      3.14955173	    -18.91005107	     18.68594593	     18.68594593	     20.47061179	    -11.16780797	      0.52024485	     29.22137856	     -3.58288071	      4.85865249	     17.84213084	     17.84213084	     -0.01110146	     -5.55943240	     -2.62648392	     -9.07290382	      1.70720278	      5.45553621	     69.66251350	    -18.94503112	     -0.12587445	     74.92082409	     44.78579334	      0.00000000	      0.00000000	    -22.78737228	     -8.56834685	     26.76206438	     31.25743580	     43.00319680	      0.00000000	      0.00000000
     32.61257143	     -4.78226095	     -3.51070103	     16.94719786	      0.99065327	      0.91431533	      0.49250184	      2.39738104	      3.09407414	    -18.73096766	     18.11415498	     18.11415498	     20.46927811	    -10.76591015	      0.59085597	     29.17588526	     -3.48400191	      4.97164438	     18.92886265	     18.92886265	      0.07712401	     -6.42933747	     -2.81726914	     -8.86337948	      1.56999252	      5.57012760	     69.40175526	    -18.74015112	      0.00992421	     74.95327799	     44.78458311	      0.00000000	      0.00000000	    -22.05221272	     -9.07420831	     26.67062448	     31.27697188	     43.04234962	      0.00000000	      0.00000000
     32.63571429	     -4.84676996	     -3.45509827	     16.60533195	      0.99322918	      0.91459101	      0.48791427	      1.62191119	      2.88500782	    -18.55361744	     17.60033513	     17.60033513	     20.36248402	    -10.36198722	      0.68337430	     29.04655115	     -3.29404369	      4.99615531	     19.77322330	     19.77322330	      0.28915600	     -7.22011763	     -2.89022766	     -8.60754849	      1.37340806	      5.70636306	     69.08076955	    -18.45734859	      0.18023253	     74.90814488	     44.78213434	      0.00000000	      0.00000000	    -21.18849806	     -9.62805536	     26.53466382	     31.33950525	     43.08143516	      0.00000000	      0.00000000
     32.65885714	     -4.80392736	     -3.53301071	     16.26383937	      0.99586405	      0.91513084	      0.48313706	      0.60971081	      2.85565155	    -18.55381817	     16.76313273	     16.76313273	     20.15036470	     -9.60109363	      0.76671102	     28.89853894	     -3.17310733	      5.40628665	     20.73323912	     20.73323912	      0.77285630	     -8.42518306	     -2.71914205	     -8.43379122	      1.36923780	      5.95537302	     68.78518300	    -18.52381700	      0.25565620	     74.72615793	     44.79114505	      0.00000000	      0.00000000	    -20.28151977	    -10.07284557	     26.38177851	     31.37339569	     43.13558487	      0.00000000	      0.00000000
     32.68200000	     -4.82786344	     -3.50667941	     15.82127224	      0.99849019	      0.91584693	      0.47836363	     -0.24111026	      2.62905543	    -18.52940994	     16.14916324	     16.14916324	     19.85955724	     -8.84032868	      0.78697476	     28.66568559	     -2.97987527	      5.60969598	     21.50188717	     21.50188717	      1.40982836	     -9.50364098	     -2.40009300	     -8.25971316	      1.20130633	      6.25151891	     68.41269279	    -18.55695277	      0.34168110	     74.39949442	     44.80497920	      0.00000000	      0.00000000	    -19.30842613	    -10.52530072	     26.18754819	     31.40107395	     43.19877711	      0.00000000	      0.00000000
     32.70514286	     -4.98535684	     -3.41726886	     15.33317812	      1.00085836	      0.91653906	      0.47346955	     -0.72282748	      2.22051893	    -18.25909427	     15.96939815	     15.96939815	     19.57578245	     -8.45046326	      0.84732452	     28.42638011	     -2.74817010	      5.49255207	     21.98468678	     21.98468678	      1.94046371	    -10.03638830	     -2.45252536	     -7.98471790	      1.07683976	      6.35101216	     68.02387126	    -18.25296028	      0.49510531	     74.20720188	     44.80639380	      0.00000000	      0.00000000	    -18.36169026	    -10.95244079	     26.02781802	     31.53641169	     43.23875199	      0.00000000	      0.00000000
     32.72828571	     -5.07568674	     -3.37875782	     14.81053347	      1.00330171	      0.91732797	      0.46854832	     -1.27319423	      1.86593446	    -18.05771388	     15.75607527	     15.75607527	     19.24736623	     -7.96833409	      0.89561575	     28.14724220	     -2.58282103	      5.37461814	     22.52225340	     22.52225340	      2.60531603	    -10.69120118	     -2.49005111	     -7.77962932	      0.97340585	      6.49481034	     67.53418918	    -18.07534396	      0.58601298	     73.85427024	     44.81496850	      0.00000000	      0.00000000	    -17.41143909	    -11.33079673	     25.84480964	     31.68741151	     43.28246638	      0.00000000	      0.00000000
     32.75142857	     -5.12097995	     -3.33868488	     14.32332987	      1.00559262	      0.91834841	      0.46339118	     -2.01000142	      1.45385709	    -18.46103526	     15.23022602	     15.23022602	     18.41721991	     -6.70354248	     -0.56178411	     27.91832539	     -2.33395031	      5.43874472	     23.33284577	     23.33284577	      4.60669153	    -11.05896061	      0.79641951	     -7.61734928	      0.90928180	      6.73544189	     67.27051881	    -18.10801499	      0.08086211	     72.11259869	     44.95287423	      0.00000000	      0.00000000	    -16.29737763	    -11.23970039	     23.85192688	     31.09918122	     43.79380219	      0.00000000	      0.00000000
     32.77457143	     -5.23465000	     -3.34663759	     13.77957589	      1.00780780	      0.91913509	      0.45841019	     -2.36242002	      1.07278435	    -18.23750680	     15.26033990	     15.26033990	     18.04016050	     -6.34191898	     -0.51024353	     27.57152199	     -2.22579734	      5.17384370	     23.63800231	     23.63800231	      5.18361313	    -11.51048810	      0.59861672	     -7.41785673	      0.94564375	      6.73183208	     66.56094500	    -17.88120469	      0.16944995	     71.76061360	     44.96041094	      0.00000000	      0.00000000	    -15.32144414	    -11.53983245	     23.65433211	     31.34042447	     43.84053462	      0.00000000	      0.00000000
     32.79771429	     -5.31395227	     -3.32326614	     13.22180964	      1.00996299	      0.92002264	      0.45328898	     -2.79378408	      0.59213382	    -18.38306419	     15.22095908	     15.22095908	     17.63200472	     -5.29152754	     -0.87156840	     27.11605777	     -2.07520126	      4.92446994	     23.83669794	     23.83669794	      5.78973378	    -11.97021517	      0.66016934	     -7.24498981	      0.95318199	      7.07899453	     65.71359234	    -18.11185477	     -0.32435325	     70.54131525	     45.02452350	      0.00000000	      0.00000000	    -14.09699979	    -11.79111409	     22.91632526	     31.57685231	     43.99242953	      0.00000000	      0.00000000
     32.82085714	     -5.43225466	     -3.29588436	     12.67679992	      1.01203232	      0.92084513	      0.44816328	     -3.10703289	      0.08162282	    -18.47546309	     15.29508579	     15.29508579	     17.16772575	     -4.45050715	     -1.29579446	     26.66219383	     -1.91517106	      4.59969760	     23.93777401	     23.93777401	      6.34485862	    -12.30526364	      0.77971178	     -7.05405923	      0.98854575	      7.18168562	     64.64073392	    -18.00342176	     -0.80857904	     69.41326267	     45.08328310	      0.00000000	      0.00000000	    -12.86622215	    -11.95341310	     22.06753466	     31.71641562	     44.15832701	      0.00000000	      0.00000000
